<?xml version="1.0" standalone="no"?>
<!DOCTYPE svg PUBLIC "-//W3C//DTD SVG 20010904//EN"
 "http://www.w3.org/TR/2001/REC-SVG-20010904/DTD/svg10.dtd">
<svg version="1.0" xmlns="http://www.w3.org/2000/svg"
 width="512.000000pt" height="512.000000pt" viewBox="0 0 512.000000 512.000000"
 preserveAspectRatio="xMidYMid meet">

<g transform="translate(0.000000,512.000000) scale(0.100000,-0.100000)"
fill="#000000" stroke="none">
<path d="M2800 3765 l0 -935 935 0 935 0 0 23 c0 12 -5 72 -10 132 -82 887
-749 1586 -1623 1700 -65 8 -145 15 -178 15 l-59 0 0 -935z"/>
<path d="M2215 4374 c-359 -54 -703 -216 -976 -457 -246 -218 -447 -531 -542
-843 l-25 -81 67 39 c36 21 109 53 161 70 92 31 101 32 260 32 159 0 168 -1
260 -32 134 -45 239 -109 336 -206 95 -96 153 -182 195 -290 79 -205 79 -427
0 -632 -43 -110 -100 -195 -200 -294 -100 -98 -196 -158 -328 -201 l-88 -28
245 -1 c256 -1 314 -7 362 -41 54 -39 68 -84 68 -224 0 -160 -18 -202 -105
-248 -19 -11 -24 -16 -13 -17 25 0 89 -60 104 -97 8 -18 14 -50 14 -72 0 -38
2 -41 38 -50 176 -47 471 -63 672 -37 380 50 716 203 1009 456 l83 73 -666
666 -666 666 0 933 0 932 -87 -1 c-49 -1 -128 -7 -178 -15z"/>
</g>
</svg>
